<svg id="emEkqMfDb4C1" xmlns="http://www.w3.org/2000/svg" xmlns:xlink="http://www.w3.org/1999/xlink" viewBox="0 0 1672 1675" shape-rendering="geometricPrecision" text-rendering="geometricPrecision"><g transform="matrix(.1 0 0-.1 0 1675)"><path d="M7915,16734c-1536-95-2912-551-4160-1379-509-338-909-669-1350-1116-637-647-1131-1342-1534-2159C365,11057,84,9985,19,8830c-15-262-6-912,15-1150c78-867,256-1625,563-2399C1347,3388,2777,1821,4592,902c1965-995,4251-1173,6349-493c623,203,1271,504,1821,847c1899,1186,3248,3072,3742,5229c148,649,210,1208,209,1895c0,499-27,854-99,1310-338,2143-1502,4074-3245,5384-1080,812-2332,1345-3664,1561-478,77-716,96-1270,99-253,2-487,2-520,0ZM5408,13700c630-11,607-9,682-76c54-49,88-117,100-201c13-92,13-2564,0-2656-16-111-70-194-155-240-47-26,107-25-1550-2-583,8-1079,18-1101,21-56,7-126,55-164,112-61,92-60,81-60,814c0,404,4,707,11,766c40,372,182,716,406,984c208,250,491,419,788,472c100,18,296,19,1043,6Zm6880-5c237-45,434-154,631-347c298-294,500-734,577-1258c15-98,18-232,21-923c3-500,1-831-5-870-17-103-48-172-105-231-38-38-64-55-97-64-31-8-454-18-1323-33-1202-20-1280-21-1322-5-79,31-152,137-175,256-6,34-10,601-10,1599c0,1689-2,1614,57,1724c34,60,104,124,152,136c35,10,753,26,1267,29c189,2,272-2,332-13Zm-3841-24l1193-19l55-27c65-31,115-91,142-168c17-49,18-125,18-1387v-1335l-23-57c-26-65-80-125-137-153-46-23,95-23-1555,1-596,8-1081,19-1102,25-63,16-119,68-158,143l-35,69v1351c0,1305,1,1353,19,1400c24,62,88,133,141,157c49,23-50,23,1442,0ZM4791,9901l1196-17l56-28c64-31,110-83,138-156c18-48,19-99,19-1339c0-1406,3-1327-56-1413-30-43-86-82-137-96-55-15-2603,23-2660,40-62,18-139,98-166,171l-21,58v1278c0,1388-2,1328,55,1411c30,43,87,87,131,100c40,11,89,11,1445-9Zm4024-942c466-6,837-15,860-21c52-13,126-88,143-144c9-31,12-221,12-770c0-712-1-730-21-774-25-56-53-86-102-112-38-19-50-19-575-9-296,6-568,16-605,21-239,37-435,123-569,248-94,89-164,191-207,300-59,155-63,190-68,633-5,446-2,490,47,558c44,60,89,80,185,81c44,0,449-5,900-11Zm3537-4c346-46,640-185,864-409c110-110,187-220,234-332c72-174,82-270,78-779-3-382-4-402-24-440-23-44-94-98-152-115-50-14-2612-42-2673-29s-116,47-153,92l-31,39-3,896c-2,802-1,901,13,939c19,48,60,87,125,117c42,20,67,21,410,26c811,12,1194,11,1312-5ZM4712,6240c1058-16,1283-22,1311-34c51-21,115-83,145-140l27-51v-1365-1365l-24-45c-42-81-104-134-177-150-17-4-386-1-820,6-719,11-797,14-879,32-125,27-204,56-316,114-360,186-643,560-758,1000-57,217-56,202-56,1033v770l24,53c40,89,133,158,216,161c17,0,605-8,1307-19Zm3661,0c1176-18,1250-20,1290-38c51-23,111-88,141-151l21-46v-1350c0-1300-1-1352-19-1399-23-60-76-120-130-149-48-26,99-26-1561-1l-1060,15-52,25c-61,29-96,68-132,144l-26,55v1350v1350l24,53c27,60,106,137,155,151c42,12-51,13,1349-9Zm3660,0c1413-22,1315-16,1390-88c51-49,83-114,97-195c8-46,10-260,7-734-3-569-7-684-21-773-68-416-225-739-486-1001-219-220-454-343-735-385-87-13-192-14-815-5-393,6-734,14-756,17-56,7-126,55-164,112-64,96-61,14-58,1503c3,1353,3,1354,24,1400c12,25,36,62,55,84c36,41,118,85,159,85c14,0,600-9,1303-20Z" fill="#c02323"/></g></svg>